<svg width="21" height="22" viewBox="0 0 21 22" fill="none" xmlns="http://www.w3.org/2000/svg">
<g clip-path="url(#clip0_131_9749)">
<path d="M1.26222 14.474C1.34814 14.4879 1.4351 14.4944 1.52211 14.4933L16.3372 14.4933L16.0141 14.6435C15.6984 14.793 15.4111 14.9964 15.1652 15.2445L11.0107 19.399C10.4635 19.9214 10.3716 20.7616 10.7928 21.3899C11.2831 22.0594 12.2232 22.2048 12.8928 21.7145C12.9469 21.6749 12.9983 21.6317 13.0466 21.5852L20.5593 14.0725C21.1464 13.4861 21.147 12.5347 20.5605 11.9476C20.5601 11.9472 20.5597 11.9468 20.5593 11.9464L13.0466 4.43375C12.459 3.84781 11.5077 3.84912 10.9217 4.43671C10.8756 4.48296 10.8325 4.53217 10.7928 4.58401C10.3716 5.2123 10.4635 6.05255 11.0107 6.57487L15.1577 10.7369C15.3781 10.9576 15.6316 11.1426 15.909 11.2853L16.3597 11.4882L1.6048 11.4882C0.837233 11.4597 0.163813 11.9958 0.0196152 12.7503C-0.113218 13.5694 0.443098 14.3411 1.26222 14.474Z" fill="#DC7000"/>
</g>
<defs>
<clipPath id="clip0_131_9749">
<rect width="21" height="21" fill="white" transform="matrix(-1 0 0 -1 21 21.5)"/>
</clipPath>
</defs>
</svg>
