<svg width="21" height="22" viewBox="0 0 21 22" fill="none" xmlns="http://www.w3.org/2000/svg">
<g clip-path="url(#clip0_131_9733)">
<path d="M1.26222 12.474C1.34814 12.4879 1.4351 12.4944 1.52211 12.4933L16.3372 12.4933L16.0141 12.6435C15.6984 12.793 15.4111 12.9964 15.1652 13.2445L11.0107 17.399C10.4635 17.9214 10.3716 18.7616 10.7928 19.3899C11.2831 20.0594 12.2232 20.2048 12.8928 19.7145C12.9469 19.6749 12.9983 19.6317 13.0466 19.5852L20.5593 12.0725C21.1464 11.4861 21.147 10.5347 20.5605 9.94762C20.5601 9.94725 20.5597 9.94682 20.5593 9.94645L13.0466 2.43375C12.459 1.84781 11.5077 1.84912 10.9217 2.43671C10.8756 2.48296 10.8325 2.53217 10.7928 2.58401C10.3716 3.2123 10.4635 4.05255 11.0107 4.57487L15.1577 8.7369C15.3781 8.95759 15.6316 9.14264 15.909 9.28533L16.3597 9.48817L1.6048 9.48817C0.837233 9.45967 0.163813 9.99584 0.0196152 10.7503C-0.113218 11.5694 0.443098 12.3411 1.26222 12.474Z" fill="#DC7000"/>
</g>
<defs>
<clipPath id="clip0_131_9733">
<rect width="21" height="21" fill="white" transform="matrix(-1 0 0 -1 21 21.5)"/>
</clipPath>
</defs>
</svg>
