<svg width="22" height="22" viewBox="0 0 22 22" fill="none" xmlns="http://www.w3.org/2000/svg">
<g clip-path="url(#clip0_131_9691)">
<path d="M1.76222 12.474C1.84814 12.4879 1.9351 12.4944 2.02211 12.4933L16.8372 12.4933L16.5141 12.6435C16.1984 12.793 15.9111 12.9964 15.6652 13.2445L11.5107 17.399C10.9635 17.9214 10.8716 18.7616 11.2928 19.3899C11.7831 20.0594 12.7232 20.2048 13.3928 19.7145C13.4469 19.6749 13.4983 19.6317 13.5466 19.5852L21.0593 12.0725C21.6464 11.4861 21.647 10.5347 21.0605 9.94762C21.0601 9.94725 21.0597 9.94682 21.0593 9.94645L13.5466 2.43375C12.959 1.84781 12.0077 1.84912 11.4217 2.43671C11.3756 2.48296 11.3325 2.53217 11.2928 2.58401C10.8716 3.2123 10.9635 4.05255 11.5107 4.57487L15.6577 8.7369C15.8781 8.95759 16.1316 9.14264 16.409 9.28533L16.8597 9.48817L2.1048 9.48817C1.33723 9.45967 0.663813 9.99584 0.519615 10.7503C0.386782 11.5694 0.943098 12.3411 1.76222 12.474Z" fill="#DC7000"/>
</g>
<defs>
<clipPath id="clip0_131_9691">
<rect width="21" height="21" fill="white" transform="matrix(-1 0 0 -1 21.5 21.5)"/>
</clipPath>
</defs>
</svg>
