<svg width="22" height="22" viewBox="0 0 22 22" fill="none" xmlns="http://www.w3.org/2000/svg">
<g clip-path="url(#clip0_131_9760)">
<path d="M1.76222 14.474C1.84814 14.4879 1.9351 14.4944 2.02211 14.4933L16.8372 14.4933L16.5141 14.6435C16.1984 14.793 15.9111 14.9964 15.6652 15.2445L11.5107 19.399C10.9635 19.9214 10.8716 20.7616 11.2928 21.3899C11.7831 22.0594 12.7232 22.2048 13.3928 21.7145C13.4469 21.6749 13.4983 21.6317 13.5466 21.5852L21.0593 14.0725C21.6464 13.4861 21.647 12.5347 21.0605 11.9476C21.0601 11.9472 21.0597 11.9468 21.0593 11.9464L13.5466 4.43375C12.959 3.84781 12.0077 3.84912 11.4217 4.43671C11.3756 4.48296 11.3325 4.53217 11.2928 4.58401C10.8716 5.2123 10.9635 6.05255 11.5107 6.57487L15.6577 10.7369C15.8781 10.9576 16.1316 11.1426 16.409 11.2853L16.8597 11.4882L2.1048 11.4882C1.33723 11.4597 0.663813 11.9958 0.519615 12.7503C0.386782 13.5694 0.943098 14.3411 1.76222 14.474Z" fill="#DC7000"/>
</g>
<defs>
<clipPath id="clip0_131_9760">
<rect width="21" height="21" fill="white" transform="matrix(-1 0 0 -1 21.5 21.5)"/>
</clipPath>
</defs>
</svg>
