<svg width="196" height="306" viewBox="0 0 196 306" fill="none" xmlns="http://www.w3.org/2000/svg">
<circle cx="3.5" cy="155.5" r="3.5" fill="#DC7000" fill-opacity="0.35"/>
<circle cx="24.5" cy="155.5" r="3.5" fill="#DC7000" fill-opacity="0.35"/>
<circle cx="45.5" cy="155.5" r="3.5" fill="#DC7000" fill-opacity="0.35"/>
<circle cx="66.5" cy="155.5" r="3.5" fill="#DC7000" fill-opacity="0.35"/>
<circle cx="87.5" cy="155.5" r="3.5" fill="#DC7000" fill-opacity="0.35"/>
<circle cx="108.5" cy="155.5" r="3.5" fill="#DC7000" fill-opacity="0.35"/>
<circle cx="129.5" cy="155.5" r="3.5" fill="#DC7000" fill-opacity="0.35"/>
<circle cx="150.5" cy="155.5" r="3.5" fill="#DC7000" fill-opacity="0.35"/>
<circle cx="171.5" cy="155.5" r="3.5" fill="#DC7000" fill-opacity="0.35"/>
<circle cx="192.5" cy="155.5" r="3.5" fill="#DC7000" fill-opacity="0.35"/>
<circle cx="3.5" cy="176.5" r="3.5" fill="#DC7000" fill-opacity="0.35"/>
<circle cx="24.5" cy="176.5" r="3.5" fill="#DC7000" fill-opacity="0.35"/>
<circle cx="45.5" cy="176.5" r="3.5" fill="#DC7000" fill-opacity="0.35"/>
<circle cx="66.5" cy="176.5" r="3.5" fill="#DC7000" fill-opacity="0.35"/>
<circle cx="87.5" cy="176.5" r="3.5" fill="#DC7000" fill-opacity="0.35"/>
<circle cx="108.5" cy="176.5" r="3.5" fill="#DC7000" fill-opacity="0.35"/>
<circle cx="129.5" cy="176.5" r="3.5" fill="#DC7000" fill-opacity="0.35"/>
<circle cx="150.5" cy="176.5" r="3.5" fill="#DC7000" fill-opacity="0.35"/>
<circle cx="171.5" cy="176.5" r="3.5" fill="#DC7000" fill-opacity="0.35"/>
<circle cx="192.5" cy="176.5" r="3.5" fill="#DC7000" fill-opacity="0.35"/>
<circle cx="3.5" cy="197.5" r="3.5" fill="#DC7000" fill-opacity="0.35"/>
<circle cx="24.5" cy="197.5" r="3.5" fill="#DC7000" fill-opacity="0.35"/>
<circle cx="45.5" cy="197.5" r="3.5" fill="#DC7000" fill-opacity="0.35"/>
<circle cx="66.5" cy="197.5" r="3.5" fill="#DC7000" fill-opacity="0.35"/>
<circle cx="87.5" cy="197.5" r="3.5" fill="#DC7000" fill-opacity="0.35"/>
<circle cx="108.5" cy="197.5" r="3.5" fill="#DC7000" fill-opacity="0.35"/>
<circle cx="129.5" cy="197.5" r="3.5" fill="#DC7000" fill-opacity="0.35"/>
<circle cx="150.5" cy="197.5" r="3.5" fill="#DC7000" fill-opacity="0.35"/>
<circle cx="171.5" cy="197.5" r="3.5" fill="#DC7000" fill-opacity="0.35"/>
<circle cx="192.5" cy="197.5" r="3.5" fill="#DC7000" fill-opacity="0.35"/>
<circle cx="3.5" cy="218.5" r="3.5" fill="#DC7000" fill-opacity="0.35"/>
<circle cx="24.5" cy="218.5" r="3.5" fill="#DC7000" fill-opacity="0.35"/>
<circle cx="45.5" cy="218.5" r="3.5" fill="#DC7000" fill-opacity="0.35"/>
<circle cx="66.5" cy="218.5" r="3.5" fill="#DC7000" fill-opacity="0.35"/>
<circle cx="87.5" cy="218.5" r="3.5" fill="#DC7000" fill-opacity="0.35"/>
<circle cx="108.5" cy="218.5" r="3.5" fill="#DC7000" fill-opacity="0.35"/>
<circle cx="129.5" cy="218.5" r="3.5" fill="#DC7000" fill-opacity="0.35"/>
<circle cx="150.5" cy="218.5" r="3.5" fill="#DC7000" fill-opacity="0.35"/>
<circle cx="171.5" cy="218.5" r="3.5" fill="#DC7000" fill-opacity="0.35"/>
<circle cx="192.5" cy="218.5" r="3.5" fill="#DC7000" fill-opacity="0.35"/>
<circle cx="3.5" cy="239.5" r="3.5" fill="#DC7000" fill-opacity="0.35"/>
<circle cx="24.5" cy="239.5" r="3.5" fill="#DC7000" fill-opacity="0.35"/>
<circle cx="45.5" cy="239.5" r="3.5" fill="#DC7000" fill-opacity="0.35"/>
<circle cx="66.5" cy="239.5" r="3.5" fill="#DC7000" fill-opacity="0.35"/>
<circle cx="87.5" cy="239.5" r="3.5" fill="#DC7000" fill-opacity="0.35"/>
<circle cx="108.5" cy="239.5" r="3.5" fill="#DC7000" fill-opacity="0.35"/>
<circle cx="129.5" cy="239.5" r="3.5" fill="#DC7000" fill-opacity="0.35"/>
<circle cx="150.5" cy="239.5" r="3.5" fill="#DC7000" fill-opacity="0.35"/>
<circle cx="171.5" cy="239.5" r="3.5" fill="#DC7000" fill-opacity="0.35"/>
<circle cx="192.5" cy="239.5" r="3.5" fill="#DC7000" fill-opacity="0.35"/>
<circle cx="3.5" cy="260.5" r="3.5" fill="#DC7000" fill-opacity="0.35"/>
<circle cx="24.5" cy="260.5" r="3.5" fill="#DC7000" fill-opacity="0.35"/>
<circle cx="45.5" cy="260.5" r="3.5" fill="#DC7000" fill-opacity="0.35"/>
<circle cx="66.5" cy="260.5" r="3.5" fill="#DC7000" fill-opacity="0.35"/>
<circle cx="87.5" cy="260.5" r="3.5" fill="#DC7000" fill-opacity="0.35"/>
<circle cx="108.5" cy="260.5" r="3.5" fill="#DC7000" fill-opacity="0.35"/>
<circle cx="129.5" cy="260.5" r="3.5" fill="#DC7000" fill-opacity="0.35"/>
<circle cx="150.5" cy="260.5" r="3.5" fill="#DC7000" fill-opacity="0.35"/>
<circle cx="171.5" cy="260.5" r="3.5" fill="#DC7000" fill-opacity="0.35"/>
<circle cx="192.5" cy="260.5" r="3.5" fill="#DC7000" fill-opacity="0.35"/>
<circle cx="3.5" cy="281.5" r="3.5" fill="#DC7000" fill-opacity="0.35"/>
<circle cx="24.5" cy="281.5" r="3.5" fill="#DC7000" fill-opacity="0.35"/>
<circle cx="45.5" cy="281.5" r="3.5" fill="#DC7000" fill-opacity="0.35"/>
<circle cx="66.5" cy="281.5" r="3.5" fill="#DC7000" fill-opacity="0.35"/>
<circle cx="87.5" cy="281.5" r="3.5" fill="#DC7000" fill-opacity="0.35"/>
<circle cx="108.5" cy="281.5" r="3.5" fill="#DC7000" fill-opacity="0.35"/>
<circle cx="129.5" cy="281.5" r="3.5" fill="#DC7000" fill-opacity="0.35"/>
<circle cx="150.5" cy="281.5" r="3.5" fill="#DC7000" fill-opacity="0.35"/>
<circle cx="171.5" cy="281.5" r="3.5" fill="#DC7000" fill-opacity="0.35"/>
<circle cx="192.5" cy="281.5" r="3.5" fill="#DC7000" fill-opacity="0.35"/>
<circle cx="3.5" cy="281.5" r="3.5" fill="#DC7000" fill-opacity="0.35"/>
<circle cx="24.5" cy="281.5" r="3.5" fill="#DC7000" fill-opacity="0.35"/>
<circle cx="45.5" cy="281.5" r="3.5" fill="#DC7000" fill-opacity="0.35"/>
<circle cx="66.5" cy="281.5" r="3.5" fill="#DC7000" fill-opacity="0.35"/>
<circle cx="87.5" cy="281.5" r="3.5" fill="#DC7000" fill-opacity="0.35"/>
<circle cx="108.5" cy="281.5" r="3.5" fill="#DC7000" fill-opacity="0.35"/>
<circle cx="129.5" cy="281.5" r="3.5" fill="#DC7000" fill-opacity="0.35"/>
<circle cx="150.5" cy="281.5" r="3.5" fill="#DC7000" fill-opacity="0.35"/>
<circle cx="171.5" cy="281.5" r="3.5" fill="#DC7000" fill-opacity="0.35"/>
<circle cx="192.5" cy="281.5" r="3.5" fill="#DC7000" fill-opacity="0.35"/>
<circle cx="3.5" cy="302.5" r="3.5" fill="#DC7000" fill-opacity="0.35"/>
<circle cx="24.5" cy="302.5" r="3.5" fill="#DC7000" fill-opacity="0.35"/>
<circle cx="45.5" cy="302.5" r="3.5" fill="#DC7000" fill-opacity="0.35"/>
<circle cx="66.5" cy="302.5" r="3.5" fill="#DC7000" fill-opacity="0.35"/>
<circle cx="87.5" cy="302.5" r="3.5" fill="#DC7000" fill-opacity="0.35"/>
<circle cx="108.5" cy="302.5" r="3.5" fill="#DC7000" fill-opacity="0.35"/>
<circle cx="129.5" cy="302.5" r="3.5" fill="#DC7000" fill-opacity="0.35"/>
<circle cx="150.5" cy="302.5" r="3.5" fill="#DC7000" fill-opacity="0.35"/>
<circle cx="171.5" cy="302.5" r="3.5" fill="#DC7000" fill-opacity="0.35"/>
<circle cx="192.5" cy="302.5" r="3.5" fill="#DC7000" fill-opacity="0.35"/>
</svg>
