<svg width="66" height="65" viewBox="0 0 66 65" fill="none" xmlns="http://www.w3.org/2000/svg">
<circle cx="33" cy="32.5" r="32.5" fill="white"/>
<g clip-path="url(#clip0_131_9714)">
<path d="M21.906 27.2411H13.7207V29.565H21.906C22.5467 29.565 23.0679 30.0862 23.0679 30.7269C23.0679 31.3676 22.5467 31.8889 21.906 31.8889H17.2065C15.2844 31.8889 13.7207 33.4526 13.7207 35.3747V38.8605H16.0446V35.3747C16.0446 34.734 16.5658 34.2128 17.2065 34.2128H21.906C23.8281 34.2128 25.3918 32.649 25.3918 30.7269C25.3918 28.8048 23.8281 27.2411 21.906 27.2411Z" fill="#DC7000"/>
<path d="M34.1318 27.2411C32.2097 27.2411 30.646 28.8048 30.646 30.7269V35.3747C30.646 36.0154 30.1247 36.5366 29.484 36.5366H24.2295V38.8605H29.484C31.4061 38.8605 32.9699 37.2968 32.9699 35.3747V30.7269C32.9699 30.0862 33.4911 29.565 34.1318 29.565H39.3864V27.2411H34.1318Z" fill="#DC7000"/>
<path d="M51.0575 34.2126V29.565C51.0575 28.2836 50.015 27.2411 48.7336 27.2411C48.2935 27.2411 47.8647 27.365 47.4935 27.5994L40.1346 32.2472C39.4559 32.6758 39.0508 33.4105 39.0508 34.2128C39.0508 35.4941 40.0933 36.5366 41.3747 36.5366H48.7336V38.8605H51.0575V36.5366H53.3814V34.2128L51.0575 34.2126ZM48.7336 34.2125L41.3755 34.2121L48.7336 29.565V34.2125Z" fill="#DC7000"/>
</g>
<defs>
<clipPath id="clip0_131_9714">
<rect width="39.661" height="39.661" fill="white" transform="translate(13.7207 13.2203)"/>
</clipPath>
</defs>
</svg>
