<svg width="25" height="24" viewBox="0 0 25 24" fill="none" xmlns="http://www.w3.org/2000/svg">
<path fill-rule="evenodd" clip-rule="evenodd" d="M12.4996 10.8001C13.4544 10.8001 14.3701 10.4208 15.0452 9.74568C15.7203 9.07055 16.0996 8.15488 16.0996 7.2001C16.0996 6.24532 15.7203 5.32964 15.0452 4.65451C14.3701 3.97938 13.4544 3.6001 12.4996 3.6001C11.5448 3.6001 10.6292 3.97938 9.95403 4.65451C9.27889 5.32964 8.89961 6.24532 8.89961 7.2001C8.89961 8.15488 9.27889 9.07055 9.95403 9.74568C10.6292 10.4208 11.5448 10.8001 12.4996 10.8001ZM7.39826 21.6001C5.57647 21.6001 4.04185 20.0687 4.73902 18.3856C5.16116 17.3664 5.7799 16.4404 6.55991 15.6604C7.33992 14.8804 8.26593 14.2616 9.28507 13.8395C10.3042 13.4174 11.3965 13.2001 12.4996 13.2001C13.6027 13.2001 14.695 13.4174 15.7142 13.8395C16.7333 14.2616 17.6593 14.8804 18.4393 15.6604C19.2193 16.4404 19.8381 17.3664 20.2602 18.3856C20.9574 20.0687 19.4228 21.6001 17.601 21.6001H7.39826Z" fill="#DC7000"/>
</svg>
