<svg width="66" height="65" viewBox="0 0 66 65" fill="none" xmlns="http://www.w3.org/2000/svg">
<circle cx="33" cy="32.5" r="32.5" fill="white"/>
<g clip-path="url(#clip0_131_9677)">
<path d="M39.2444 17.6271H26.7561C25.5524 17.6271 24.5723 18.6072 24.5723 19.8109V45.1885C24.5723 46.3927 25.5524 47.3728 26.7561 47.3728H39.2439C40.4481 47.3728 41.4282 46.3927 41.4282 45.189V19.8109C41.4282 18.6072 40.4481 17.6271 39.2444 17.6271ZM25.5638 21.5932H40.4367V40.4322H25.5638V21.5932ZM26.7561 18.6186H39.2439C39.9017 18.6186 40.4367 19.1535 40.4367 19.8109V20.6017H25.5638V19.8109C25.5638 19.1535 26.0987 18.6186 26.7561 18.6186ZM39.2444 46.3813H26.7561C26.0987 46.3813 25.5638 45.8464 25.5638 45.189V41.4237H40.4367V45.189C40.4367 45.8464 39.9017 46.3813 39.2444 46.3813Z" fill="#DC7000"/>
<path d="M33.0006 41.9194C31.907 41.9194 31.0176 42.8088 31.0176 43.9025C31.0176 44.9961 31.907 45.8855 33.0006 45.8855C34.0943 45.8855 34.9837 44.9961 34.9837 43.9025C34.9837 42.8088 34.0943 41.9194 33.0006 41.9194ZM33.0006 44.894C32.4538 44.894 32.0091 44.4493 32.0091 43.9025C32.0091 43.3557 32.4538 42.911 33.0006 42.911C33.5475 42.911 33.9922 43.3557 33.9922 43.9025C33.9922 44.4493 33.5475 44.894 33.0006 44.894Z" fill="#DC7000"/>
<path d="M31.0172 20.1059H33.0003C33.2745 20.1059 33.4961 19.8843 33.4961 19.6101C33.4961 19.336 33.2745 19.1144 33.0003 19.1144H31.0172C30.7431 19.1144 30.5215 19.336 30.5215 19.6101C30.5215 19.8843 30.7431 20.1059 31.0172 20.1059Z" fill="#DC7000"/>
<path d="M34.4879 20.1059H34.9837C35.2579 20.1059 35.4795 19.8843 35.4795 19.6101C35.4795 19.336 35.2579 19.1144 34.9837 19.1144H34.4879C34.2138 19.1144 33.9922 19.336 33.9922 19.6101C33.9922 19.8843 34.2138 20.1059 34.4879 20.1059Z" fill="#DC7000"/>
<path d="M46.1931 19.8922C45.9992 19.6984 45.6859 19.6984 45.4921 19.8922C45.2982 20.0861 45.2982 20.3994 45.4921 20.5932C47.3442 22.4454 47.3442 25.4591 45.4921 27.3118C45.2982 27.5056 45.2982 27.819 45.4921 28.0128C45.5887 28.1095 45.7156 28.1581 45.8426 28.1581C45.9695 28.1581 46.0964 28.1095 46.1931 28.0128C48.4319 25.7744 48.4319 22.1311 46.1931 19.8922Z" fill="#DC7000"/>
<path d="M44.1062 21.0205C43.9123 20.8267 43.599 20.8267 43.4051 21.0205C43.2113 21.2143 43.2113 21.5277 43.4051 21.7215C44.0184 22.3348 44.356 23.1518 44.356 24.0214C44.356 24.8909 44.0184 25.7074 43.4051 26.3207C43.2113 26.5145 43.2113 26.8279 43.4051 27.0217C43.5018 27.1184 43.6287 27.167 43.7557 27.167C43.8826 27.167 44.0095 27.1184 44.1062 27.0217C44.9068 26.2216 45.3475 25.1557 45.3475 24.0214C45.3475 22.8871 44.9073 21.8207 44.1062 21.0205Z" fill="#DC7000"/>
<path d="M20.5081 20.5932C20.7019 20.3994 20.7019 20.0861 20.5081 19.8922C20.3142 19.6984 20.0009 19.6984 19.8071 19.8922C17.5682 22.1311 17.5682 25.7739 19.8071 28.0128C19.9038 28.1095 20.0307 28.1581 20.1576 28.1581C20.2845 28.1581 20.4114 28.1095 20.5081 28.0128C20.7019 27.819 20.7019 27.5056 20.5081 27.3118C18.6554 25.4596 18.6554 22.4459 20.5081 20.5932Z" fill="#DC7000"/>
<path d="M22.5957 20.8838C22.4019 20.6899 22.0886 20.6899 21.8947 20.8838C21.0941 21.6839 20.6533 22.7498 20.6533 23.8841C20.6533 25.0184 21.0941 26.0843 21.8947 26.885C21.9914 26.9817 22.1183 27.0303 22.2452 27.0303C22.3721 27.0303 22.499 26.9817 22.5957 26.885C22.7896 26.6912 22.7896 26.3778 22.5957 26.184C21.9825 25.5707 21.6448 24.7537 21.6448 23.8841C21.6448 23.0146 21.982 22.1981 22.5957 21.5848C22.7891 21.3914 22.7891 21.0776 22.5957 20.8838Z" fill="#DC7000"/>
</g>
<defs>
<clipPath id="clip0_131_9677">
<rect width="29.7458" height="29.7458" fill="white" transform="translate(18.127 17.6271)"/>
</clipPath>
</defs>
</svg>
