<svg width="66" height="65" viewBox="0 0 66 65" fill="none" xmlns="http://www.w3.org/2000/svg">
<circle cx="33" cy="32.5" r="32.5" fill="white"/>
<g clip-path="url(#clip0_131_9694)">
<path d="M19.6879 29.305C19.8295 29.3058 19.9655 29.2503 20.066 29.1506L22.1959 27.0206C22.4047 26.8118 22.4047 26.4733 22.1959 26.2645C21.9871 26.0557 21.6486 26.0557 21.4398 26.2645L19.3099 28.3945C19.209 28.4944 19.1523 28.6305 19.1523 28.7725C19.1523 28.9145 19.209 29.0506 19.3099 29.1506C19.4103 29.2503 19.5464 29.3058 19.6879 29.305Z" fill="#DC7000"/>
<path d="M19.6879 32.4999C19.8295 32.5007 19.9655 32.4452 20.066 32.3455L25.3908 27.0206C25.5996 26.8118 25.5996 26.4733 25.3908 26.2645C25.182 26.0557 24.8435 26.0557 24.6347 26.2645L19.3099 31.5894C19.209 31.6894 19.1523 31.8255 19.1523 31.9674C19.1523 32.1094 19.209 32.2455 19.3099 32.3455C19.4103 32.4452 19.5464 32.5007 19.6879 32.4999Z" fill="#DC7000"/>
<path d="M47.3771 16.5254H33.5325C32.6502 16.5254 31.935 17.2406 31.935 18.1228V23.9802H19.6878C18.2174 23.9802 17.0254 25.1722 17.0254 26.6426V40.4873C17.0254 41.9577 18.2174 43.1497 19.6878 43.1497H25.5452V45.2796H23.9477C23.0655 45.2796 22.3502 45.9948 22.3502 46.8771C22.3502 47.7593 23.0655 48.4745 23.9477 48.4745H47.3771C48.2593 48.4745 48.9745 47.7593 48.9745 46.8771V18.1228C48.9745 17.2406 48.2593 16.5254 47.3771 16.5254ZM19.6878 25.0452H38.8573C39.7396 25.0452 40.4548 25.7604 40.4548 26.6426V39.4223H18.0904V26.6426C18.0904 25.7604 18.8056 25.0452 19.6878 25.0452ZM18.0904 40.4873H40.4548C40.4548 41.3695 39.7396 42.0847 38.8573 42.0847H19.6878C18.8056 42.0847 18.0904 41.3695 18.0904 40.4873ZM26.6101 43.1497H31.935V45.2796H26.6101V43.1497ZM33.5325 47.4096H23.9477C23.6536 47.4096 23.4152 47.1712 23.4152 46.8771C23.4152 46.583 23.6536 46.3446 23.9477 46.3446H34.5974C34.8915 46.3446 35.1299 46.583 35.1299 46.8771C35.1299 47.1712 34.8915 47.4096 34.5974 47.4096H33.5325ZM47.9096 46.8771C47.9096 47.1712 47.6712 47.4096 47.3771 47.4096H36.099C36.2716 46.9214 36.1969 46.3798 35.8986 45.9566C35.6002 45.5334 35.1152 45.2811 34.5974 45.2796H33V43.1497H38.8573C40.3277 43.1497 41.5197 41.9577 41.5197 40.4873V26.6426C41.5197 25.1722 40.3277 23.9802 38.8573 23.9802H33V18.1228C33 17.8288 33.2384 17.5904 33.5325 17.5904H47.3771C47.6712 17.5904 47.9096 17.8288 47.9096 18.1228V46.8771Z" fill="#DC7000"/>
<path d="M45.7801 19.1879H35.1304C34.5422 19.1879 34.0654 19.6647 34.0654 20.2528V21.3178C34.0654 21.906 34.5422 22.3828 35.1304 22.3828H45.7801C46.3683 22.3828 46.8451 21.906 46.8451 21.3178V20.2528C46.8451 19.6647 46.3683 19.1879 45.7801 19.1879ZM35.1304 21.3178V20.2528H45.7801V21.3178H35.1304Z" fill="#DC7000"/>
<path d="M44.7146 27.1751C45.5969 27.1751 46.3121 26.4599 46.3121 25.5777C46.3121 24.6954 45.5969 23.9802 44.7146 23.9802C43.8324 23.9802 43.1172 24.6954 43.1172 25.5777C43.1172 26.4599 43.8324 27.1751 44.7146 27.1751ZM44.7146 25.0452C45.0087 25.0452 45.2471 25.2836 45.2471 25.5777C45.2471 25.8718 45.0087 26.1102 44.7146 26.1102C44.4206 26.1102 44.1822 25.8718 44.1822 25.5777C44.1822 25.2836 44.4206 25.0452 44.7146 25.0452Z" fill="#DC7000"/>
<path d="M46.3121 29.8376C46.3121 28.9553 45.5969 28.2401 44.7146 28.2401C43.8324 28.2401 43.1172 28.9553 43.1172 29.8376C43.1172 30.7198 43.8324 31.435 44.7146 31.435C45.5969 31.435 46.3121 30.7198 46.3121 29.8376ZM44.7146 30.3701C44.4206 30.3701 44.1822 30.1317 44.1822 29.8376C44.1822 29.5435 44.4206 29.3051 44.7146 29.3051C45.0087 29.3051 45.2471 29.5435 45.2471 29.8376C45.2471 30.1317 45.0087 30.3701 44.7146 30.3701Z" fill="#DC7000"/>
<path d="M37.7923 44.2147C37.4982 44.2147 37.2598 44.4531 37.2598 44.7472V45.8122C37.2598 46.1063 37.4982 46.3447 37.7923 46.3447C38.0863 46.3447 38.3247 46.1063 38.3247 45.8122V44.7472C38.3247 44.4531 38.0863 44.2147 37.7923 44.2147Z" fill="#DC7000"/>
<path d="M39.9221 44.2147C39.6281 44.2147 39.3896 44.4531 39.3896 44.7472V45.8122C39.3896 46.1063 39.6281 46.3447 39.9221 46.3447C40.2162 46.3447 40.4546 46.1063 40.4546 45.8122V44.7472C40.4546 44.4531 40.2162 44.2147 39.9221 44.2147Z" fill="#DC7000"/>
<path d="M42.052 44.2147C41.7579 44.2147 41.5195 44.4531 41.5195 44.7472V45.8122C41.5195 46.1063 41.7579 46.3447 42.052 46.3447C42.3461 46.3447 42.5845 46.1063 42.5845 45.8122V44.7472C42.5845 44.4531 42.3461 44.2147 42.052 44.2147Z" fill="#DC7000"/>
<path d="M44.1819 44.2147C43.8878 44.2147 43.6494 44.4531 43.6494 44.7472V45.8122C43.6494 46.1063 43.8878 46.3447 44.1819 46.3447C44.476 46.3447 44.7144 46.1063 44.7144 45.8122V44.7472C44.7144 44.4531 44.476 44.2147 44.1819 44.2147Z" fill="#DC7000"/>
<path d="M46.3118 44.2147C46.0177 44.2147 45.7793 44.4531 45.7793 44.7472V45.8122C45.7793 46.1063 46.0177 46.3447 46.3118 46.3447C46.6059 46.3447 46.8443 46.1063 46.8443 45.8122V44.7472C46.8443 44.4531 46.6059 44.2147 46.3118 44.2147Z" fill="#DC7000"/>
</g>
<defs>
<clipPath id="clip0_131_9694">
<rect width="31.9492" height="31.9492" fill="white" transform="translate(17.0254 16.5254)"/>
</clipPath>
</defs>
</svg>
