<svg width="65" height="66" viewBox="0 0 65 66" fill="none" xmlns="http://www.w3.org/2000/svg">
<circle cx="32.5" cy="33" r="32.5" fill="white"/>
<g clip-path="url(#clip0_131_9737)">
<path d="M45.7203 18.6779H20.3813C18.2528 18.6803 16.5278 20.4052 16.5254 22.5338V44.5677C16.5278 46.6963 18.2528 48.4212 20.3813 48.4236H45.7203C47.8489 48.4212 49.5738 46.6963 49.5762 44.5677V22.5338C49.5738 20.4052 47.8489 18.6803 45.7203 18.6779ZM48.4745 44.5677C48.4727 46.0881 47.2407 47.3201 45.7203 47.3219H20.3813C18.861 47.3201 17.6289 46.0881 17.6271 44.5677V22.5338C17.6289 21.0134 18.861 19.7814 20.3813 19.7796H45.7203C47.2407 19.7814 48.4727 21.0134 48.4745 22.5338V44.5677Z" fill="#DC7000"/>
<path d="M45.72 23.0846H20.3811C19.4684 23.0846 18.7285 23.8245 18.7285 24.7371V44.5676C18.7285 45.4803 19.4684 46.2202 20.3811 46.2202H45.72C46.6327 46.2202 47.3726 45.4803 47.3726 44.5676V24.7371C47.3726 23.8245 46.6327 23.0846 45.72 23.0846ZM33.0505 34.0266L27.0513 30.7965L33.0505 27.5663L39.0498 30.7965L33.0505 34.0266ZM39.6607 31.7186V38.1778L33.6014 41.4421V34.9829L39.6607 31.7186ZM32.4997 34.9829V41.4421L26.4404 38.1778V31.7186L32.4997 34.9829ZM19.8302 24.7371C19.8302 24.4329 20.0768 24.1863 20.3811 24.1863H32.4997V26.61L25.6284 30.3117C25.6213 30.3156 25.613 30.3172 25.6058 30.3216C25.4393 30.4217 25.3378 30.6021 25.3387 30.7965V35.4137L19.8302 38.1679V24.7371ZM46.2709 44.5676C46.2709 44.8719 46.0243 45.1185 45.72 45.1185H20.3811C20.0768 45.1185 19.8302 44.8719 19.8302 44.5676V39.3996L25.3387 36.6454V38.5083C25.3388 38.7109 25.4501 38.8971 25.6284 38.9931L32.7894 42.849C32.9525 42.9368 33.1486 42.9368 33.3117 42.849L40.4727 38.9931C40.651 38.8971 40.7623 38.7109 40.7624 38.5083V36.6454L46.2709 39.3996V44.5676ZM46.2709 38.1679L40.7624 35.4137V30.7965C40.7623 30.6027 40.6605 30.4232 40.4942 30.3238C40.487 30.3194 40.4787 30.3178 40.4716 30.3139L33.6014 26.61V24.1863H45.72C46.0243 24.1863 46.2709 24.4329 46.2709 24.7371V38.1679Z" fill="#DC7000"/>
<path d="M19.8301 21.9829C20.1344 21.9829 20.381 21.7363 20.381 21.4321C20.381 21.1278 20.1344 20.8812 19.8301 20.8812C19.5259 20.8812 19.2793 21.1278 19.2793 21.4321C19.2793 21.7363 19.5259 21.9829 19.8301 21.9829Z" fill="#DC7000"/>
<path d="M22.0342 21.9829C22.3385 21.9829 22.5851 21.7363 22.5851 21.4321C22.5851 21.1278 22.3385 20.8812 22.0342 20.8812C21.73 20.8812 21.4834 21.1278 21.4834 21.4321C21.4834 21.7363 21.73 21.9829 22.0342 21.9829Z" fill="#DC7000"/>
<path d="M24.2374 21.9829C24.5416 21.9829 24.7882 21.7363 24.7882 21.4321C24.7882 21.1278 24.5416 20.8812 24.2374 20.8812C23.9331 20.8812 23.6865 21.1278 23.6865 21.4321C23.6865 21.7363 23.9331 21.9829 24.2374 21.9829Z" fill="#DC7000"/>
<path d="M38.0089 21.9829H45.7207C46.0249 21.9829 46.2716 21.7363 46.2716 21.4321C46.2716 21.1278 46.0249 20.8812 45.7207 20.8812H38.0089C37.7046 20.8812 37.458 21.1278 37.458 21.4321C37.458 21.7363 37.7046 21.9829 38.0089 21.9829Z" fill="#DC7000"/>
</g>
<defs>
<clipPath id="clip0_131_9737">
<rect width="33.0508" height="33.0508" fill="white" transform="translate(16.5254 17.0254)"/>
</clipPath>
</defs>
</svg>
