<svg width="66" height="65" viewBox="0 0 66 65" fill="none" xmlns="http://www.w3.org/2000/svg">
<circle cx="33" cy="32.5" r="32.5" fill="white"/>
<g clip-path="url(#clip0_131_9752)">
<path d="M47.8522 42.4496L47.1906 39.9805C47.1045 39.659 46.774 39.468 46.4527 39.5544C46.1312 39.6406 45.9405 39.9709 46.0266 40.2923L46.3163 41.3733L42.0885 38.9616V28.9384C42.0885 28.7228 41.9732 28.5235 41.7863 28.4161L33.0507 23.3937V18.621L33.8297 19.4C34.065 19.6353 34.4465 19.6353 34.6818 19.4C34.9171 19.1647 34.9171 18.7832 34.6818 18.5479L32.8742 16.7403C32.6387 16.5038 32.253 16.5086 32.0221 16.7403L30.2145 18.5479C29.9792 18.7831 29.9792 19.1647 30.2145 19.4C30.4498 19.6352 30.8313 19.6352 31.0667 19.4L31.8457 18.621V23.3948L23.1687 28.4169C22.9826 28.5247 22.868 28.7234 22.868 28.9384V38.8642L18.5807 41.3005L18.8708 40.2176C18.9569 39.8961 18.7662 39.5658 18.4447 39.4797C18.1232 39.3934 17.7929 39.5843 17.7068 39.9057L17.0453 42.3754C16.9615 42.6882 17.1488 43.0362 17.4894 43.1181L19.9405 43.7749C20.2645 43.8617 20.593 43.6677 20.6785 43.3489C20.7646 43.0275 20.5739 42.6971 20.2524 42.611L19.2069 42.3308L23.4619 39.9129L32.1804 45.0468C32.367 45.1567 32.5988 45.1581 32.7871 45.0496L34.9973 43.7754C35.2856 43.6092 35.3845 43.2408 35.2184 42.9525C35.0522 42.6643 34.6837 42.5653 34.3954 42.7315L32.4894 43.8303L24.6706 39.2261L32.4102 34.8281L40.299 39.3281L39.0921 40.0239C38.8038 40.1901 38.7049 40.5585 38.871 40.8468C39.0373 41.1352 39.4058 41.2341 39.694 41.0678L41.5118 40.0199L45.6922 42.4046L44.6452 42.6851C44.3238 42.7712 44.133 43.1016 44.2192 43.423C44.3049 43.7429 44.6342 43.9357 44.9571 43.8491L47.3719 43.2021C47.7167 43.1412 47.9447 42.7947 47.8522 42.4496ZM40.8834 38.2741L33.0506 33.806V24.7837L40.8834 29.287V38.2741ZM24.073 29.2859L31.8456 24.7872V33.7627L24.073 38.1795V29.2859Z" fill="#DC7000"/>
<path d="M37.0273 42.4722C37.3601 42.4722 37.6299 42.2025 37.6299 41.8697C37.6299 41.537 37.3601 41.2672 37.0273 41.2672C36.6946 41.2672 36.4248 41.537 36.4248 41.8697C36.4248 42.2025 36.6946 42.4722 37.0273 42.4722Z" fill="#DC7000"/>
</g>
<defs>
<clipPath id="clip0_131_9752">
<rect width="30.8475" height="30.8475" fill="white" transform="translate(17.0254 15.4237)"/>
</clipPath>
</defs>
</svg>
