<svg width="65" height="66" viewBox="0 0 65 66" fill="none" xmlns="http://www.w3.org/2000/svg">
<circle cx="32.5" cy="33" r="32.5" fill="white"/>
<g clip-path="url(#clip0_131_9725)">
<path d="M34.5675 41.4054C32.8815 41.968 31.0218 41.9679 29.331 41.4052C28.8572 41.2474 28.3456 41.5037 28.1881 41.9772C28.0305 42.4508 28.2866 42.9626 28.7602 43.1202C29.7899 43.4629 30.8708 43.6341 31.9514 43.6341C33.032 43.6341 34.1124 43.4627 35.1397 43.1199C35.6131 42.962 35.8689 42.4501 35.7108 41.9766C35.5529 41.5032 35.0411 41.2476 34.5675 41.4054Z" fill="#DC7000"/>
<path d="M42.4773 24.0314C42.0926 21.2726 39.7237 19.0951 36.7896 19.0951H35.7573V19.0308C35.7573 18.5317 35.3527 18.1271 34.8536 18.1271H29.0456C28.5465 18.1271 28.1419 18.5317 28.1419 19.0308V19.095H27.1096C24.2001 19.095 21.828 21.2422 21.4245 24.0307C19.7305 24.4163 18.4619 25.9337 18.4619 27.7427V35.4868C18.4619 37.9634 20.4792 38.9727 21.3956 39.1905C21.8093 44.7659 26.4909 48.9745 31.9496 48.9745C37.5164 48.9745 42.093 44.6544 42.5032 39.1908C44.8785 38.6268 45.4373 36.4719 45.4373 35.4868V27.7428C45.4374 25.9346 44.17 24.4178 42.4773 24.0314ZM35.7573 20.9025H36.7896C39.3467 20.9025 40.403 22.9932 40.6226 23.9351H35.7573V20.9025ZM29.9493 19.9345H33.9499V23.9351H29.9493V19.9345ZM27.1096 20.9025H28.1419V23.9351H23.2803C23.8665 21.4796 26.091 20.9025 27.1096 20.9025ZM31.9496 47.1671C27.4891 47.1671 23.6762 43.7879 23.2193 39.2945H27.6759C28.7849 39.2945 29.87 38.8451 30.6529 38.0616C30.6576 38.0569 30.6621 38.0522 30.6667 38.0475C31.0067 37.7149 31.4732 37.5246 31.9496 37.5246C32.4262 37.5246 32.8926 37.715 33.2325 38.0475C33.2371 38.0522 33.2416 38.0569 33.2463 38.0616C34.0293 38.8451 35.1144 39.2945 36.2234 39.2945H40.6796C40.2258 43.7108 36.4838 47.1671 31.9496 47.1671ZM43.6299 35.4868C43.6299 36.6053 42.7183 37.487 41.6296 37.487H36.2234C35.5973 37.487 34.9848 37.2364 34.5396 36.7985C34.5347 36.7934 34.5298 36.7883 34.5248 36.7833C33.8472 36.1057 32.9086 35.7171 31.9497 35.7171C30.9907 35.7171 30.0522 36.1057 29.3746 36.7833C29.3696 36.7883 29.3646 36.7933 29.3597 36.7985C28.9144 37.2364 28.302 37.487 27.6759 37.487H22.2696C21.1844 37.487 20.2693 36.6091 20.2693 35.4868V27.7428C20.2693 26.6399 21.1667 25.7426 22.2696 25.7426H41.6296C42.7325 25.7426 43.6298 26.6399 43.6298 27.7428V35.4868H43.6299Z" fill="#DC7000"/>
</g>
<defs>
<clipPath id="clip0_131_9725">
<rect width="30.8475" height="30.8475" fill="white" transform="translate(16.5254 18.1271)"/>
</clipPath>
</defs>
</svg>
